<mxfile host="Electron" agent="Mozilla/5.0 (Windows NT 10.0; Win64; x64) AppleWebKit/537.36 (KHTML, like Gecko) draw.io/26.2.2 Chrome/134.0.6998.178 Electron/35.1.2 Safari/537.36" version="26.2.2">
  <diagram name="Page-1" id="dQ3_nkjfHzIPM96NH0KZ">
    <mxGraphModel dx="1428" dy="849" grid="1" gridSize="10" guides="1" tooltips="1" connect="1" arrows="1" fold="1" page="1" pageScale="1" pageWidth="850" pageHeight="1100" math="0" shadow="0">
      <root>
        <mxCell id="0" />
        <mxCell id="1" parent="0" />
        <mxCell id="Pcxero0CiSbf2tbfJ2MJ-83" value="" style="rounded=0;whiteSpace=wrap;html=1;strokeColor=none;" parent="1" vertex="1">
          <mxGeometry x="300" y="20" width="230" height="180" as="geometry" />
        </mxCell>
        <mxCell id="Pcxero0CiSbf2tbfJ2MJ-81" value="" style="rounded=0;whiteSpace=wrap;html=1;strokeColor=none;" parent="1" vertex="1">
          <mxGeometry x="20" y="20" width="260" height="180" as="geometry" />
        </mxCell>
        <mxCell id="Pcxero0CiSbf2tbfJ2MJ-52" value="SplitContentLayout" style="swimlane;whiteSpace=wrap;html=1;startSize=23;fillColor=#ffe6cc;strokeColor=#d79b00;" parent="1" vertex="1">
          <mxGeometry x="20" y="20" width="260" height="180" as="geometry" />
        </mxCell>
        <mxCell id="Pcxero0CiSbf2tbfJ2MJ-53" value="" style="verticalLabelPosition=bottom;shadow=0;dashed=0;align=center;html=1;verticalAlign=top;strokeWidth=1;shape=mxgraph.mockup.forms.splitter;strokeColor=#d79b00;direction=north;fillColor=#ffe6cc;" parent="Pcxero0CiSbf2tbfJ2MJ-52" vertex="1">
          <mxGeometry x="80" y="20" width="10" height="160" as="geometry" />
        </mxCell>
        <mxCell id="Pcxero0CiSbf2tbfJ2MJ-54" value="" style="verticalLabelPosition=bottom;shadow=0;dashed=0;align=center;html=1;verticalAlign=top;strokeWidth=1;shape=mxgraph.mockup.forms.splitter;strokeColor=#d79b00;direction=north;fillColor=#ffe6cc;" parent="Pcxero0CiSbf2tbfJ2MJ-52" vertex="1">
          <mxGeometry x="170" y="20" width="10" height="160" as="geometry" />
        </mxCell>
        <mxCell id="Pcxero0CiSbf2tbfJ2MJ-56" value="ContentLayout" style="rounded=0;whiteSpace=wrap;html=1;direction=west;horizontal=0;fillColor=#ffe6cc;strokeColor=#d79b00;" parent="Pcxero0CiSbf2tbfJ2MJ-52" vertex="1">
          <mxGeometry x="20" y="40" width="40" height="120" as="geometry" />
        </mxCell>
        <mxCell id="Pcxero0CiSbf2tbfJ2MJ-58" value="ContentLayout" style="rounded=0;whiteSpace=wrap;html=1;direction=west;horizontal=0;fillColor=#ffe6cc;strokeColor=#d79b00;" parent="Pcxero0CiSbf2tbfJ2MJ-52" vertex="1">
          <mxGeometry x="110" y="40" width="40" height="120" as="geometry" />
        </mxCell>
        <mxCell id="Pcxero0CiSbf2tbfJ2MJ-59" value="ContentLayout" style="rounded=0;whiteSpace=wrap;html=1;direction=west;horizontal=0;fillColor=#ffe6cc;strokeColor=#d79b00;" parent="Pcxero0CiSbf2tbfJ2MJ-52" vertex="1">
          <mxGeometry x="200" y="40" width="40" height="120" as="geometry" />
        </mxCell>
        <mxCell id="Pcxero0CiSbf2tbfJ2MJ-71" value="LeafContentLayout" style="swimlane;whiteSpace=wrap;html=1;startSize=23;fillColor=#ffe6cc;strokeColor=#d79b00;glass=0;" parent="1" vertex="1">
          <mxGeometry x="300" y="20" width="230" height="180" as="geometry" />
        </mxCell>
        <mxCell id="Pcxero0CiSbf2tbfJ2MJ-77" value="Content" style="rounded=0;whiteSpace=wrap;html=1;direction=west;horizontal=1;fillColor=#d5e8d4;strokeColor=#82b366;" parent="Pcxero0CiSbf2tbfJ2MJ-71" vertex="1">
          <mxGeometry x="20" y="40" width="190" height="120" as="geometry" />
        </mxCell>
      </root>
    </mxGraphModel>
  </diagram>
</mxfile>
